inDegrees=yes
name=ik_S57_A02_T03
DataType=double
version=3
OpenSimVersion=4.3-2021-08-27-4bc7ad9
endheader
time	pelvis_tilt	pelvis_list	pelvis_rotation	pelvis_tx	pelvis_ty	pelvis_tz	hip_flexion_r	hip_adduction_r	hip_rotation_r	knee_angle_r	knee_angle_r_beta	ankle_angle_r	subtalar_angle_r	mtp_angle_r	hip_flexion_l	hip_adduction_l	hip_rotation_l	knee_angle_l	knee_angle_l_beta	ankle_angle_l	subtalar_angle_l	mtp_angle_l	lumbar_extension	lumbar_bending	lumbar_rotation	arm_flex_r	arm_add_r	arm_rot_r	elbow_flex_r	pro_sup_r	wrist_flex_r	wrist_dev_r	arm_flex_l	arm_add_l	arm_rot_l	elbow_flex_l	pro_sup_l	wrist_flex_l	wrist_dev_l
15.83999999999975	-1.024380624178818	4.033438594671646	-88.95791151568665	0	0.9399999999999999	0	-0.8787749893471895	4.475694680705358	-7.01144892795684	11.83055098511196	0.2064820670152624	0	0	0	16.50908062882315	-2.54046451043223	4.454017040435075	-5.561373036960568	-0.09706427042659821	0	0	0	0	0	0	24.36622997495257	-24.36622997495256	3.713388659871367	67.88470791363805	86.28661155106136	0	0	24.36622997495257	-24.36622997495256	3.713388659871367	67.88470791363805	86.28661155082057	0	0
15.85999999999975	-0.8109437845004615	4.189862394725765	-88.33350901780172	0	0.9399999999999999	0	0.7535265712826398	5.348050583267251	-6.738255993039285	9.569624985643259	0.1670214641805899	0	0	0	16.24558326205432	-2.63735877789132	4.76495541735478	-6.744346145056296	-0.1177110461254195	0	0	0	0	0	0	24.33633978197945	-24.33633978197944	3.710398299741576	67.84453263263606	86.28960191103435	0	0	24.33633978197945	-24.33633978197944	3.710398299741576	67.84453263263606	86.28960191079301	0	0
15.87999999999975	-0.5874332700274275	4.326010760428293	-87.78813315174736	0	0.9399999999999999	0	1.245856274566464	5.539238567597963	-7.273650370002353	8.968622608475766	0.1565319938867044	0	0	0	16.40073688730184	-2.267605376175561	5.139643367447883	-6.773157359768121	-0.1182138966836398	0	0	0	0	0	0	24.33884977842692	-24.3388497784269	3.710705111365387	67.848747908178	86.28929509942714	0	0	24.33884977842692	-24.3388497784269	3.710705111365387	67.848747908178	86.28929509918582	0	0
15.89999999999975	-0.4145328985427263	4.434283855375367	-87.2773763608896	0	0.9399999999999999	0	1.794517179276746	5.329817179263871	-7.791439470104175	9.099075167089802	0.1588088205521702	0	0	0	16.42647086994659	-1.938416348684048	5.338176258812441	-6.68203502314138	-0.1166235118873926	0	0	0	0	0	0	24.340998311482	-24.34099831148198	3.710967837852717	67.85235757762544	86.28903237295404	0	0	24.340998311482	-24.34099831148198	3.710967837852717	67.85235757762544	86.28903237271278	0	0
15.91999999999975	-0.07935989381977172	4.651196881920711	-86.38444727959001	0	0.9399999999999999	0	2.649104942317798	5.02521850207785	-8.301707341282457	9.573603263573741	0.1670908982290363	0	0	0	16.57239165388294	-1.294982856893181	5.857512268160201	-5.186415999550137	-0.09052003557026264	0	0	0	0	0	0	24.34472597484298	-24.34472597484297	3.711424996591261	67.85864036152988	86.28857521424023	0	0	24.34472597484298	-24.34472597484297	3.711424996591261	67.85864036152988	86.28857521399904	0	0
15.93999999999975	-0.09653362499814816	4.629435831177768	-86.4063368987244	0	0.9399999999999999	0	3.486800397486844	5.169581900055608	-8.647537263409067	7.839094495119508	0.136818009314798	0	0	0	16.52333724089439	-1.31326552084942	5.779807668900778	-4.342790812357583	-0.07579599840099907	0	0	0	0	0	0	24.35211200165373	-24.35211200165372	3.712329630689739	67.87107053445754	86.28767058019065	0	0	24.35211200165373	-24.35211200165372	3.712329630689739	67.87107053445754	86.28767057994965	0	0
15.95999999999975	0.1257036343969228	4.798624401642055	-86.04754910979507	0	0.9399999999999999	0	3.690459633603936	4.959192682433591	-9.015849183419485	6.9590540907981	0.1214584067088073	0	0	0	16.40731314817206	-1.68160899450056	4.362240281591874	-2.246786899723622	-0.03921382899085287	0	0	0	0	0	0	24.442274640386	-24.44227464038598	3.721861460989573	67.99995900562729	86.27813875039526	0	0	24.442274640386	-24.44227464038598	3.721861460989573	67.99995900562729	86.27813875015605	0	0
15.97999999999975	0.1135341089318732	4.813451282893694	-86.00912279151696	0	0.9399999999999999	0	3.709082330459001	5.399038190101145	-10.51089825162008	5.4337311741406	0.09483649965701083	0	0	0	16.18030979104554	-1.637966382418978	4.08200540531022	-0.009204012196646832	-0.000160640317225203	0	0	0	0	0	0	24.45114668019853	-24.45114668019852	3.722945988417376	68.0148523655472	86.27705422302611	0	0	24.45114668019853	-24.45114668019852	3.722945988417376	68.0148523655472	86.27705422278706	0	0
